Coordinates
version=1
nRows=16
nColumns=33
inDegrees=yes

Units are S.I. units (second, meters, Newtons, ...)
Angles are in degrees.

endheader
time	ground_thorax_rot_x	ground_thorax_rot_y	ground_thorax_rot_z	ground_thorax_tx	ground_thorax_ty	ground_thorax_tz	clav_prot_r	clav_elev_r	scapula_abduction_r	scapula_elevation_r	scapula_upward_rot_r	scapula_winging_r	shoulder_elv_r	plane_of_elev_r	axial_rot_r	elbow_flexion_r	pro_sup_r	wrist_flex_r	wrist_dev_r	clav_prot_l	clav_elev_l	scapula_abduction_l	scapula_elevation_l	scapula_upward_rot_l	scapula_winging_l	shoulder_elv_l	plane_of_elev_l	axial_rot_l	elbow_flexion_l	pro_sup_l	wrist_flex_l	wrist_dev_l
      5.46000000	     35.48214643	     20.07163582	     26.59952334	    -98.64429302	    798.47121062	      5.54983619	     15.96348594	     38.20378864	     38.65005676	     45.00000000	    -45.00000000	   1717.81946609	  -1188.23427275	    146.30841645	    179.99999979	   1807.80701825	     42.04053800	     21.74157722	     16.56296849	     10.54311529	    -45.00000000	    -40.21693231	     45.00000000	    -38.42212460	  -2786.08849348	  -1538.12502495	    138.95933411	    172.93211170	   1086.58715785	     23.51762957	     13.75594064	    -20.78034736
      5.47000000	     35.08495737	     20.85230282	     27.79141564	    -94.32728555	    795.62206111	      5.58461526	     15.94116748	     38.20966605	     38.36256513	     45.00000000	    -45.00000000	   1718.07083502	  -1188.49910430	    146.36594032	    179.99999979	   1807.45543294	     42.39729164	     21.58361797	     16.72931553	     10.60661457	    -45.00000000	    -39.93075572	     45.00000000	    -39.44912745	  -2786.45059108	  -1538.40499717	    138.84217281	    173.86811251	   1086.16904156	     24.57871827	     13.92960234	    -20.72632380
      5.48000000	     34.58953769	     21.65146764	     29.03297441	    -90.17869571	    792.84098849	      5.58509522	     15.72506493	     38.13605360	     38.01096120	     45.00000000	    -45.00000000	   1718.34798219	  -1188.90359120	    146.43285430	    179.99999979	   1807.00130464	     42.79630066	     21.42028299	     16.90990114	     10.81387621	    -45.00000000	    -39.61301487	     45.00000000	    -40.61153861	  -2786.75373951	  -1538.63436573	    138.68010459	    174.72234569	   1085.85990589	     25.59678099	     14.06785553	    -20.68355889
      5.49000000	     34.03118831	     22.61426219	     30.46258126	    -86.21305215	    790.14940480	      5.55134011	     15.24210361	     37.92664001	     37.54501760	     45.00000000	    -45.00000000	   1718.45959488	  -1189.26752293	    146.43920520	    179.99999979	   1806.56318269	     43.19191666	     21.24721774	     17.11242845	     11.25676891	    -45.00000000	    -39.26001493	     45.00000000	    -42.09015039	  -2786.86790369	  -1538.84104279	    138.28339655	    175.32888294	   1085.44564440	     26.55482304	     14.22935882	    -20.58341866
      5.50000000	     33.28173345	     23.90546715	     32.19622942	    -82.44771591	    787.58037151	      5.49009820	     14.66086627	     37.64408868	     36.95760745	     45.00000000	    -45.00000000	   1718.78913612	  -1189.56087945	    146.96801534	    179.99999979	   1806.14180396	     43.54286345	     20.99141960	     17.19610001	     11.56875003	    -45.00000000	    -39.41547137	     45.00000000	    -43.72511621	  -2786.82918550	  -1539.29210116	    137.91463173	    175.98414887	   1084.86843097	     27.40394517	     14.39714377	    -20.37375748
      5.51000000	     33.33783543	     23.80181272	     32.38477359	    -78.88906391	    785.17099789	      5.40580802	     15.71312075	     38.16167183	     37.15307642	     45.00000000	    -45.00000000	   1719.04282900	  -1189.86254510	    146.81522990	    179.99999979	   1805.97702562	     44.06213661	     20.88855089	     17.11346261	     10.69041471	    -45.00000000	    -38.65214634	     45.00000000	    -43.71827679	  -2787.59282853	  -1539.44349328	    138.08766046	    177.84283190	   1084.42234406	     28.74243982	     14.38312725	    -20.46260036
      5.52000000	     32.80629588	     24.69197979	     33.57709944	    -75.55280660	    782.95513958	      5.30926897	     15.43278579	     38.09673830	     36.64695298	     45.00000000	    -45.00000000	   1719.23194787	  -1190.08197282	    146.91250199	    179.99999979	   1805.49896810	     44.42539221	     20.67337492	     17.18829794	     11.03835667	    -45.00000000	    -38.53579490	     45.00000000	    -44.84780330	  -2787.91159327	  -1539.59841440	    137.95616735	    178.46433217	   1083.99488737	     29.90771097	     14.37579910	    -20.41529190
      5.53000000	     32.38183286	     25.14837140	     34.21276926	    -72.44865070	    780.95541214	      5.20683980	     15.02600543	     37.81753628	     36.30269388	     45.00000000	    -45.00000000	   1719.62012258	  -1190.38730969	    147.14344610	    179.99999979	   1805.32519473	     44.65572147	     20.41967535	     17.13254189	     11.30843252	    -45.00000000	    -39.18756160	     45.00000000	    -44.38700813	  -2787.46915671	  -1540.38065402	    137.91769965	    178.13161354	   1083.73271923	     30.85042123	     14.41393873	    -20.27669589
      5.54000000	     31.80222150	     25.87428256	     35.45091985	    -69.59131345	    779.18885059	      5.11067896	     15.12702414	     37.88339307	     35.87384920	     45.00000000	    -45.00000000	   1719.91068083	  -1190.63567879	    147.30118326	    179.99999979	   1804.85942001	     44.94465077	     20.18072037	     17.12359550	     11.22828698	    -45.00000000	    -38.76028706	     45.00000000	    -45.00000000	  -2787.90462277	  -1540.47592216	    138.32279419	    178.05682884	   1083.38454007	     31.55779847	     14.23188021	    -20.18721910
      5.55000000	     31.72839042	     26.04457978	     35.72685791	    -66.98762775	    777.67190894	      5.02536338	     15.31519505	     37.93237919	     35.80506287	     45.00000000	    -45.00000000	   1720.10454066	  -1190.87207678	    147.30508695	    179.99999979	   1804.68963208	     45.20951961	     20.00884503	     17.05470968	     11.09299641	    -45.00000000	    -38.66381095	     45.00000000	    -45.00000000	  -2788.10514229	  -1540.85284605	    138.49369416	    177.76508895	   1083.28887558	     32.23026102	     14.14074824	    -20.14185055
      5.56000000	     31.32045927	     26.46008648	     36.49576436	    -64.65268827	    776.41385490	      4.95817546	     15.29205019	     37.91330336	     35.49444988	     45.00000000	    -45.00000000	   1720.37543050	  -1191.07428376	    147.37781254	    179.99999979	   1804.35835999	     45.48581034	     19.81878162	     17.01125658	     11.09643002	    -45.00000000	    -38.47788380	     45.00000000	    -45.00000000	  -2788.29590781	  -1541.06425253	    138.86406792	    177.25312624	   1083.01457670	     32.77862642	     13.99575068	    -20.05445698
      5.57000000	     31.20957575	     26.61002680	     36.87717882	    -62.59208384	    775.42289833	      4.90909884	     15.42907579	     37.91109206	     35.39811578	     45.00000000	    -45.00000000	   1720.57007730	  -1191.19458620	    147.39552082	    179.99999979	   1804.26576235	     45.72827427	     19.66350903	     16.91531058	     11.06451165	    -45.00000000	    -38.31049193	     45.00000000	    -45.00000000	  -2788.46203073	  -1541.38002243	    139.17760040	    176.66065338	   1082.93722651	     33.19598490	     13.84179659	    -19.98548830
      5.58000000	     30.98096684	     26.85830485	     37.37952098	    -60.81066294	    774.70512038	      4.88032160	     15.41361699	     37.92678475	     35.21051540	     45.00000000	    -45.00000000	   1720.80262232	  -1191.32388785	    147.43160115	    179.99999979	   1804.00711254	     46.00934428	     19.53771761	     16.87581197	     11.04828400	    -45.00000000	    -38.08572564	     45.00000000	    -45.00000000	  -2788.57423996	  -1541.58843760	    139.48156489	    176.05132517	   1082.75000558	     33.49451650	     13.68748183	    -19.90694062
      5.59000000	     30.82063796	     26.89849405	     37.49412383	    -59.32207457	    774.26854402	      4.86533111	     15.37861235	     37.86748440	     35.09629662	     45.00000000	    -45.00000000	   1721.05267309	  -1191.44458429	    147.38607489	    179.99999979	   1803.89390516	     46.30773216	     19.47053325	     16.82263779	     11.04101756	    -45.00000000	    -38.25059946	     45.00000000	    -45.00000000	  -2788.62467105	  -1541.72213185	    139.59233238	    175.38608257	   1082.79141104	     33.70273457	     13.55062836	    -19.86649578
      5.60000000	     30.82591829	     26.90804276	     37.52135321	    -58.16728834	    774.10330375	      4.84949836	     15.45175401	     37.94956680	     35.37379206	     45.00000000	    -45.00000000	   1721.06387496	  -1191.72159120	    147.53256985	    179.99999979	   1803.84282751	     46.63370276	     19.45302488	     16.76832056	     11.05474354	    -45.00000000	    -37.85654585	     45.00000000	    -45.00000000	  -2788.82827154	  -1541.72169903	    139.71498700	    174.83113808	   1082.82724127	     33.78065715	     13.35050998	    -19.82688183
      5.61000000	     30.79973795	     26.88613213	     37.28859468	    -57.35672487	    774.19134098	      4.83426754	     15.58413054	     37.94244524	     35.14740878	     45.00000000	    -45.00000000	   1721.21987363	  -1191.65756914	    147.29914559	    179.99999979	   1803.92913903	     47.01306798	     19.48076838	     16.69165935	     10.82002815	    -45.00000000	    -38.19505414	     45.00000000	    -45.00000000	  -2788.82886104	  -1541.79015697	    139.66571744	    174.34747345	   1083.06800091	     33.76630205	     13.21980760	    -19.83041326
